<?xml version="1.0" encoding="UTF-8"?>
<!DOCTYPE svg PUBLIC "-//W3C//DTD SVG 1.1//EN" "http://www.w3.org/Graphics/SVG/1.1/DTD/svg11.dtd">
<svg xmlns="http://www.w3.org/2000/svg" version="1.1" width="169px" height="169px" style="shape-rendering:geometricPrecision; text-rendering:geometricPrecision; image-rendering:optimizeQuality; fill-rule:evenodd; clip-rule:evenodd" xmlns:xlink="http://www.w3.org/1999/xlink">
<g><path style="opacity:1" fill="#f9f9f9" d="M -0.5,-0.5 C 16.5,-0.5 33.5,-0.5 50.5,-0.5C 41.7182,1.77999 35.5516,7.11332 32,15.5C 31.5034,17.8098 31.3367,20.1432 31.5,22.5C 30.3181,20.9005 28.9847,20.5672 27.5,21.5C 26.4164,20.3349 25.5831,19.0016 25,17.5C 23.0266,18.6399 21.1933,19.9733 19.5,21.5C 16.9743,26.7175 14.3076,31.8842 11.5,37C 11.9574,37.414 12.2907,37.914 12.5,38.5C 11.1046,43.2363 9.60456,47.903 8,52.5C 3.78917,53.2148 0.955832,55.5481 -0.5,59.5C -0.5,39.5 -0.5,19.5 -0.5,-0.5 Z"/></g>
<g><path style="opacity:1" fill="#f7f8f5" d="M 101.5,-0.5 C 123.833,-0.5 146.167,-0.5 168.5,-0.5C 168.5,26.1667 168.5,52.8333 168.5,79.5C 166.973,79.573 165.973,78.9063 165.5,77.5C 165.466,55.2052 156.8,36.0385 139.5,20C 134.927,16.4248 130.093,13.2581 125,10.5C 120.567,16.2667 115.4,21.4334 109.5,26C 101.613,29.8457 93.2801,32.179 84.5,33C 80.3187,34.5127 76.6521,36.846 73.5,40C 75.5979,39.9678 77.5979,39.3011 79.5,38C 101.098,36.9273 107.931,46.4273 100,66.5C 98.6288,68.0414 97.1288,69.3747 95.5,70.5C 95.5861,68.323 96.2528,66.323 97.5,64.5C 95.5213,62.7363 95.188,60.7363 96.5,58.5C 97.2811,59.7287 97.7811,61.062 98,62.5C 103.464,56.9309 103.797,50.9309 99,44.5C 96.5428,43.3626 94.3762,41.8626 92.5,40C 87.0289,39.2472 81.6956,39.7472 76.5,41.5C 74.2199,41.2674 72.2199,40.434 70.5,39C 72.4486,36.7329 74.782,35.0662 77.5,34C 78.6956,33.3457 78.6956,32.8457 77.5,32.5C 74.9439,33.0512 72.6106,34.0512 70.5,35.5C 70.0995,37.4342 69.0995,38.9342 67.5,40C 68.9886,43.6665 67.6553,45.6665 63.5,46C 59.4235,51.5226 60.4235,53.5226 66.5,52C 68.0223,53.9162 69.0223,56.0829 69.5,58.5C 69.3367,60.8568 69.5034,63.1902 70,65.5C 73.4147,61.2113 77.9147,59.2113 83.5,59.5C 81.9255,61.7995 79.9255,62.6329 77.5,62C 76.7734,63.3988 76.2734,64.8988 76,66.5C 75.6667,65.8333 75.3333,65.1667 75,64.5C 73.3829,65.8513 72.2162,67.518 71.5,69.5C 70.914,69.2907 70.414,68.9574 70,68.5C 69.7613,69.788 70.2613,70.788 71.5,71.5C 67.6996,71.7939 65.1996,73.7939 64,77.5C 52.6859,58.954 55.8526,43.454 73.5,31C 82.1981,27.5652 91.1981,25.2318 100.5,24C 103.356,22.7413 106.023,21.2413 108.5,19.5C 112.91,16.4207 116.244,12.4207 118.5,7.5C 118.376,6.89333 118.043,6.55999 117.5,6.5C 112.47,3.38232 107.137,1.04898 101.5,-0.5 Z"/></g>
<g><path style="opacity:1" fill="#60451a" d="M 72.5,-0.5 C 82.1667,-0.5 91.8333,-0.5 101.5,-0.5C 107.137,1.04898 112.47,3.38232 117.5,6.5C 116.288,8.90662 114.788,11.24 113,13.5C 111.867,15.2112 110.367,15.7112 108.5,15C 108.833,14.6667 109.167,14.3333 109.5,14C 108.833,12.3333 108.167,10.6667 107.5,9C 98.2559,7.22621 88.9226,5.89287 79.5,5C 76.0942,4.41754 73.7609,2.58421 72.5,-0.5 Z"/></g>
<g><path style="opacity:1" fill="#5a4828" d="M 70.5,-0.5 C 71.1667,-0.5 71.8333,-0.5 72.5,-0.5C 73.7609,2.58421 76.0942,4.41754 79.5,5C 88.9226,5.89287 98.2559,7.22621 107.5,9C 108.167,10.6667 108.833,12.3333 109.5,14C 109.167,14.3333 108.833,14.6667 108.5,15C 110.367,15.7112 111.867,15.2112 113,13.5C 114.788,11.24 116.288,8.90662 117.5,6.5C 118.043,6.55999 118.376,6.89333 118.5,7.5C 116.244,12.4207 112.91,16.4207 108.5,19.5C 106.73,18.236 105.063,16.736 103.5,15C 103.833,14.6667 104.167,14.3333 104.5,14C 102.292,13.8091 100.292,13.3091 98.5,12.5C 101.518,12.6646 104.518,12.498 107.5,12C 97.1851,9.91879 86.8518,7.91879 76.5,6C 73.5914,4.59448 71.5914,2.42781 70.5,-0.5 Z"/></g>
<g><path style="opacity:1" fill="#18362c" d="M 50.5,-0.5 C 54.1667,-0.5 57.8333,-0.5 61.5,-0.5C 62.0906,0.151487 62.7573,0.818153 63.5,1.5C 60.8116,4.35395 58.3116,7.35395 56,10.5C 54,16.5 52,22.5 50,28.5C 46.6132,32.0391 42.4466,33.3724 37.5,32.5C 34.4807,29.7974 32.4807,26.4641 31.5,22.5C 31.3367,20.1432 31.5034,17.8098 32,15.5C 35.5516,7.11332 41.7182,1.77999 50.5,-0.5 Z"/></g>
<g><path style="opacity:1" fill="#e6f0ed" d="M 41.5,14.5 C 42.5,14.5 43.5,14.5 44.5,14.5C 45.172,17.9079 44.172,20.5745 41.5,22.5C 38.9371,19.9201 38.9371,17.2535 41.5,14.5 Z"/></g>
<g><path style="opacity:1" fill="#5d451f" d="M 165.5,77.5 C 165.5,77.1667 165.5,76.8333 165.5,76.5C 159.046,59.0652 149.379,43.7319 136.5,30.5C 135.893,30.6236 135.56,30.9569 135.5,31.5C 132.917,27.8623 129.584,26.529 125.5,27.5C 120.083,32.2045 114.083,35.8711 107.5,38.5C 115.918,53.5124 113.584,66.679 100.5,78C 91.335,83.0814 82.335,88.4148 73.5,94C 74.0944,94.4643 74.7611,94.631 75.5,94.5C 70.6309,96.3177 66.2976,99.151 62.5,103C 59.0063,103.92 56.673,102.754 55.5,99.5C 58.6652,95.502 62.3319,92.002 66.5,89C 76.0657,83.392 85.399,77.5587 94.5,71.5C 95.1667,71.5 95.5,71.1667 95.5,70.5C 97.1288,69.3747 98.6288,68.0414 100,66.5C 107.931,46.4273 101.098,36.9273 79.5,38C 77.5979,39.3011 75.5979,39.9678 73.5,40C 76.6521,36.846 80.3187,34.5127 84.5,33C 93.2801,32.179 101.613,29.8457 109.5,26C 115.4,21.4334 120.567,16.2667 125,10.5C 130.093,13.2581 134.927,16.4248 139.5,20C 156.8,36.0385 165.466,55.2052 165.5,77.5 Z"/></g>
<g><path style="opacity:1" fill="#f3f2ec" d="M 125.5,27.5 C 135.926,40.5359 136.093,53.8692 126,67.5C 122.113,72.0537 117.613,75.8871 112.5,79C 100.341,84.6618 88.0075,89.8284 75.5,94.5C 74.7611,94.631 74.0944,94.4643 73.5,94C 82.335,88.4148 91.335,83.0814 100.5,78C 113.584,66.679 115.918,53.5124 107.5,38.5C 114.083,35.8711 120.083,32.2045 125.5,27.5 Z"/></g>
<g><path style="opacity:1" fill="#18372c" d="M 98.5,12.5 C 100.292,13.3091 102.292,13.8091 104.5,14C 104.167,14.3333 103.833,14.6667 103.5,15C 105.063,16.736 106.73,18.236 108.5,19.5C 106.023,21.2413 103.356,22.7413 100.5,24C 91.1981,25.2318 82.1981,27.5652 73.5,31C 55.8526,43.454 52.6859,58.954 64,77.5C 65.1996,73.7939 67.6996,71.7939 71.5,71.5C 71.8719,74.0217 71.0386,76.0217 69,77.5C 68.5026,80.146 68.3359,82.8127 68.5,85.5C 67.7494,86.5735 66.7494,86.7401 65.5,86C 53.2153,79.2817 47.2153,68.7817 47.5,54.5C 52.0839,25.6787 69.0839,11.6787 98.5,12.5 Z"/></g>
<g><path style="opacity:1" fill="#17362b" d="M 36.5,44.5 C 37.038,46.1172 37.3713,47.7839 37.5,49.5C 38.5442,56.1988 36.7109,61.8654 32,66.5C 16.1406,61.7826 10.474,51.4493 15,35.5C 16.497,31.8351 18.497,28.5017 21,25.5C 22.2635,23.393 24.0968,22.393 26.5,22.5C 26.8143,25.9466 27.6476,29.2799 29,32.5C 31.7753,36.3961 34.2753,40.3961 36.5,44.5 Z"/></g>
<g><path style="opacity:1" fill="#f4f6f5" d="M 61.5,-0.5 C 64.5,-0.5 67.5,-0.5 70.5,-0.5C 71.5914,2.42781 73.5914,4.59448 76.5,6C 86.8518,7.91879 97.1851,9.91879 107.5,12C 104.518,12.498 101.518,12.6646 98.5,12.5C 69.0839,11.6787 52.0839,25.6787 47.5,54.5C 47.2153,68.7817 53.2153,79.2817 65.5,86C 66.7494,86.7401 67.7494,86.5735 68.5,85.5C 69.5964,83.8968 70.9297,82.3968 72.5,81C 72.1667,80.6667 71.8333,80.3333 71.5,80C 73.235,79.3486 74.9017,79.5153 76.5,80.5C 79.1347,80.1058 79.8014,78.9392 78.5,77C 79.3396,75.8288 80.1729,74.6621 81,73.5C 82.4178,75.3632 84.2511,75.8632 86.5,75C 88.5039,73.5773 90.0039,71.744 91,69.5C 92.3024,70.0848 93.469,70.7515 94.5,71.5C 85.399,77.5587 76.0657,83.392 66.5,89C 62.3319,92.002 58.6652,95.502 55.5,99.5C 52.1059,103.408 49.2725,107.742 47,112.5C 45.1242,110.578 43.6242,108.411 42.5,106C 47.2587,101.501 48.7587,96.0009 47,89.5C 43.6058,83.3814 40.7725,77.0481 38.5,70.5C 35.8374,68.8893 35.3374,66.8893 37,64.5C 38.2975,65.7836 39.4642,65.6169 40.5,64C 40.4549,61.3635 40.2882,58.5302 40,55.5C 39.6667,56.5 39.3333,57.5 39,58.5C 38.8195,55.3054 38.3195,52.3054 37.5,49.5C 37.3713,47.7839 37.038,46.1172 36.5,44.5C 36.4142,43.5041 36.7476,42.6708 37.5,42C 35.3875,38.2768 33.3875,34.4435 31.5,30.5C 31.8333,30.1667 32.1667,29.8333 32.5,29.5C 33.5211,31.6189 35.0211,33.2856 37,34.5C 37.4643,33.9056 37.631,33.2389 37.5,32.5C 42.4466,33.3724 46.6132,32.0391 50,28.5C 52,22.5 54,16.5 56,10.5C 58.3116,7.35395 60.8116,4.35395 63.5,1.5C 62.7573,0.818153 62.0906,0.151487 61.5,-0.5 Z"/></g>
<g><path style="opacity:1" fill="#4e4830" d="M 67.5,7.5 C 68.5,7.5 69.5,7.5 70.5,7.5C 70.5,8.83333 70.5,10.1667 70.5,11.5C 69.5,11.5 68.5,11.5 67.5,11.5C 67.5,10.1667 67.5,8.83333 67.5,7.5 Z"/></g>
<g><path style="opacity:1" fill="#5b4725" d="M 114.5,38.5 C 120.986,38.6036 126.486,40.937 131,45.5C 131.49,46.7932 131.657,48.1266 131.5,49.5C 128.446,48.8037 125.78,47.3037 123.5,45C 120.28,43.6476 116.947,42.8143 113.5,42.5C 113.433,41.0413 113.766,39.7079 114.5,38.5 Z"/></g>
<g><path style="opacity:1" fill="#ebf3f1" d="M 23.5,43.5 C 27.9256,45.3592 29.4256,48.6925 28,53.5C 25.5118,54.4122 23.8452,53.4122 23,50.5C 22.2967,48.0709 22.4634,45.7375 23.5,43.5 Z"/></g>
<g><path style="opacity:1" fill="#1c362c" d="M 83.5,59.5 C 77.9147,59.2113 73.4147,61.2113 70,65.5C 69.5034,63.1902 69.3367,60.8568 69.5,58.5C 73.4228,54.9062 78.0895,52.7395 83.5,52C 85.0488,50.786 86.2155,49.286 87,47.5C 87.9434,52.1651 86.7767,56.1651 83.5,59.5 Z"/></g>
<g><path style="opacity:1" fill="#f8f9f9" d="M 95.5,70.5 C 95.5,71.1667 95.1667,71.5 94.5,71.5C 93.469,70.7515 92.3024,70.0848 91,69.5C 90.0039,71.744 88.5039,73.5773 86.5,75C 84.2511,75.8632 82.4178,75.3632 81,73.5C 80.1729,74.6621 79.3396,75.8288 78.5,77C 79.8014,78.9392 79.1347,80.1058 76.5,80.5C 74.9017,79.5153 73.235,79.3486 71.5,80C 71.8333,80.3333 72.1667,80.6667 72.5,81C 70.9297,82.3968 69.5964,83.8968 68.5,85.5C 68.3359,82.8127 68.5026,80.146 69,77.5C 71.0386,76.0217 71.8719,74.0217 71.5,71.5C 70.2613,70.788 69.7613,69.788 70,68.5C 70.414,68.9574 70.914,69.2907 71.5,69.5C 72.2162,67.518 73.3829,65.8513 75,64.5C 75.3333,65.1667 75.6667,65.8333 76,66.5C 76.2734,64.8988 76.7734,63.3988 77.5,62C 79.9255,62.6329 81.9255,61.7995 83.5,59.5C 86.7767,56.1651 87.9434,52.1651 87,47.5C 86.2155,49.286 85.0488,50.786 83.5,52C 78.0895,52.7395 73.4228,54.9062 69.5,58.5C 69.0223,56.0829 68.0223,53.9162 66.5,52C 60.4235,53.5226 59.4235,51.5226 63.5,46C 67.6553,45.6665 68.9886,43.6665 67.5,40C 69.0995,38.9342 70.0995,37.4342 70.5,35.5C 72.6106,34.0512 74.9439,33.0512 77.5,32.5C 78.6956,32.8457 78.6956,33.3457 77.5,34C 74.782,35.0662 72.4486,36.7329 70.5,39C 72.2199,40.434 74.2199,41.2674 76.5,41.5C 81.6956,39.7472 87.0289,39.2472 92.5,40C 94.3762,41.8626 96.5428,43.3626 99,44.5C 103.797,50.9309 103.464,56.9309 98,62.5C 97.7811,61.062 97.2811,59.7287 96.5,58.5C 95.188,60.7363 95.5213,62.7363 97.5,64.5C 96.2528,66.323 95.5861,68.323 95.5,70.5 Z"/></g>
<g><path style="opacity:1" fill="#554121" d="M 121.5,69.5 C 120.833,66.5 120.167,63.5 119.5,60.5C 118.63,57.622 117.297,54.9553 115.5,52.5C 115.833,51.5 116.5,50.8333 117.5,50.5C 123.243,54.3258 125.409,59.6591 124,66.5C 123.623,67.9423 122.79,68.9423 121.5,69.5 Z"/></g>
<g><path style="opacity:1" fill="#948e7c" d="M 119.5,60.5 C 120.167,63.5 120.833,66.5 121.5,69.5C 121.44,70.0431 121.107,70.3764 120.5,70.5C 119.513,67.2317 119.18,63.8984 119.5,60.5 Z"/></g>
<g><path style="opacity:1" fill="#59472a" d="M 111.5,66.5 C 112.833,66.5 114.167,66.5 115.5,66.5C 115.649,69.6074 115.149,72.6074 114,75.5C 112.759,77.4206 111.259,77.754 109.5,76.5C 111.184,73.3876 111.85,70.0543 111.5,66.5 Z"/></g>
<g><path style="opacity:1" fill="#f3f2e9" d="M 135.5,31.5 C 135.56,30.9569 135.893,30.6236 136.5,30.5C 149.379,43.7319 159.046,59.0652 165.5,76.5C 163.876,74.8632 162.876,75.1966 162.5,77.5C 163.175,80.6913 164.342,83.6913 166,86.5C 166.741,98.5748 166.074,110.575 164,122.5C 163.667,122.167 163.333,121.833 163,121.5C 161.214,122.912 159.714,124.579 158.5,126.5C 157.675,127.386 156.675,127.719 155.5,127.5C 165.689,113.019 167.856,97.3527 162,80.5C 157.781,70.3938 152.781,60.7271 147,51.5C 145.989,50.6634 144.822,50.33 143.5,50.5C 143.353,54.5357 144.853,57.8691 148,60.5C 149.893,63.618 151.226,66.9513 152,70.5C 152.595,81.0448 152.095,91.5448 150.5,102C 151.436,109.512 152.436,117.012 153.5,124.5C 152.306,120.481 151.306,120.648 150.5,125C 150.945,126.447 151.612,127.78 152.5,129C 149.688,133.401 148.022,138.234 147.5,143.5C 146.167,143.5 144.833,143.5 143.5,143.5C 146.982,138.385 148.649,132.719 148.5,126.5C 147.499,117.829 146.499,109.162 145.5,100.5C 147.08,90.5506 147.58,80.5506 147,70.5C 146.4,66.9599 144.566,64.2932 141.5,62.5C 137.904,66.3898 137.738,70.3898 141,74.5C 141.22,91.5105 135.72,106.344 124.5,119C 123.207,119.49 121.873,119.657 120.5,119.5C 120.351,118.448 120.517,117.448 121,116.5C 122.707,114.963 124.207,113.296 125.5,111.5C 132.279,101.164 135.613,89.8303 135.5,77.5C 131.133,80.2283 129.3,84.2283 130,89.5C 124.816,103.181 114.983,111.181 100.5,113.5C 100.33,112.178 100.663,111.011 101.5,110C 112.066,106.655 119.899,100.155 125,90.5C 125.667,89.1667 125.667,87.8333 125,86.5C 113.496,93.3403 101.329,98.8403 88.5,103C 81.8685,106.327 75.2019,109.66 68.5,113C 66.6131,113.78 64.9464,113.613 63.5,112.5C 66.9563,110.217 70.2896,107.717 73.5,105C 89.3153,98.2575 104.982,91.2575 120.5,84C 137.541,72.8668 144.041,57.3668 140,37.5C 138.637,35.3162 137.137,33.3162 135.5,31.5 Z"/></g>
<g><path style="opacity:1" fill="#5a4728" d="M 155.5,127.5 C 153.952,127.179 153.285,126.179 153.5,124.5C 152.436,117.012 151.436,109.512 150.5,102C 152.095,91.5448 152.595,81.0448 152,70.5C 151.226,66.9513 149.893,63.618 148,60.5C 144.853,57.8691 143.353,54.5357 143.5,50.5C 144.822,50.33 145.989,50.6634 147,51.5C 152.781,60.7271 157.781,70.3938 162,80.5C 167.856,97.3527 165.689,113.019 155.5,127.5 Z"/></g>
<g><path style="opacity:1" fill="#19362b" d="M 135.5,31.5 C 137.137,33.3162 138.637,35.3162 140,37.5C 144.041,57.3668 137.541,72.8668 120.5,84C 104.982,91.2575 89.3153,98.2575 73.5,105C 70.2896,107.717 66.9563,110.217 63.5,112.5C 61.8565,114.919 59.8565,117.086 57.5,119C 58.4162,119.374 59.2496,119.874 60,120.5C 73.114,117.183 85.9473,113.183 98.5,108.5C 98.5,109.5 98.5,110.5 98.5,111.5C 97.5,111.5 96.5,111.5 95.5,111.5C 95.4873,114.863 93.8206,117.03 90.5,118C 91.4158,118.278 92.0825,118.778 92.5,119.5C 88.0731,121.212 83.7398,123.212 79.5,125.5C 73.019,127.858 66.3523,129.024 59.5,129C 36.2512,116.017 28.4179,96.8498 36,71.5C 36.6708,70.7476 37.5041,70.4142 38.5,70.5C 40.7725,77.0481 43.6058,83.3814 47,89.5C 48.7587,96.0009 47.2587,101.501 42.5,106C 43.6242,108.411 45.1242,110.578 47,112.5C 49.2725,107.742 52.1059,103.408 55.5,99.5C 56.673,102.754 59.0063,103.92 62.5,103C 66.2976,99.151 70.6309,96.3177 75.5,94.5C 88.0075,89.8284 100.341,84.6618 112.5,79C 117.613,75.8871 122.113,72.0537 126,67.5C 136.093,53.8692 135.926,40.5359 125.5,27.5C 129.584,26.529 132.917,27.8623 135.5,31.5 Z"/></g>
<g><path style="opacity:1" fill="#daede8" d="M 38.5,90.5 C 39.5,90.5 40.5,90.5 41.5,90.5C 41.5,92.8333 41.5,95.1667 41.5,97.5C 40.5,97.5 39.5,97.5 38.5,97.5C 38.5,95.1667 38.5,92.8333 38.5,90.5 Z"/></g>
<g><path style="opacity:1" fill="#5a4623" d="M 125.5,111.5 C 124.876,111.083 124.543,110.416 124.5,109.5C 126.127,107.348 127.627,105.014 129,102.5C 129.749,101.365 129.583,100.365 128.5,99.5C 127.086,100.624 125.586,101.624 124,102.5C 120.52,105.795 117.686,109.462 115.5,113.5C 116.463,112.637 116.463,111.97 115.5,111.5C 107.726,113.889 100.059,116.555 92.5,119.5C 92.0825,118.778 91.4158,118.278 90.5,118C 93.8206,117.03 95.4873,114.863 95.5,111.5C 96.5,111.5 97.5,111.5 98.5,111.5C 98.5,110.5 98.5,109.5 98.5,108.5C 85.9473,113.183 73.114,117.183 60,120.5C 59.2496,119.874 58.4162,119.374 57.5,119C 59.8565,117.086 61.8565,114.919 63.5,112.5C 64.9464,113.613 66.6131,113.78 68.5,113C 75.2019,109.66 81.8685,106.327 88.5,103C 101.329,98.8403 113.496,93.3403 125,86.5C 125.667,87.8333 125.667,89.1667 125,90.5C 119.899,100.155 112.066,106.655 101.5,110C 100.663,111.011 100.33,112.178 100.5,113.5C 114.983,111.181 124.816,103.181 130,89.5C 129.3,84.2283 131.133,80.2283 135.5,77.5C 135.613,89.8303 132.279,101.164 125.5,111.5 Z"/></g>
<g><path style="opacity:1" fill="#f1f5f4" d="M 31.5,22.5 C 32.4807,26.4641 34.4807,29.7974 37.5,32.5C 37.631,33.2389 37.4643,33.9056 37,34.5C 35.0211,33.2856 33.5211,31.6189 32.5,29.5C 32.1667,29.8333 31.8333,30.1667 31.5,30.5C 33.3875,34.4435 35.3875,38.2768 37.5,42C 36.7476,42.6708 36.4142,43.5041 36.5,44.5C 34.2753,40.3961 31.7753,36.3961 29,32.5C 27.6476,29.2799 26.8143,25.9466 26.5,22.5C 24.0968,22.393 22.2635,23.393 21,25.5C 18.497,28.5017 16.497,31.8351 15,35.5C 10.474,51.4493 16.1406,61.7826 32,66.5C 36.7109,61.8654 38.5442,56.1988 37.5,49.5C 38.3195,52.3054 38.8195,55.3054 39,58.5C 39.3333,57.5 39.6667,56.5 40,55.5C 40.2882,58.5302 40.4549,61.3635 40.5,64C 39.4642,65.6169 38.2975,65.7836 37,64.5C 35.3374,66.8893 35.8374,68.8893 38.5,70.5C 37.5041,70.4142 36.6708,70.7476 36,71.5C 28.4179,96.8498 36.2512,116.017 59.5,129C 66.3523,129.024 73.019,127.858 79.5,125.5C 76.9739,128.118 73.9739,130.285 70.5,132C 72.3333,134.5 74.1667,137 76,139.5C 76.414,139.043 76.914,138.709 77.5,138.5C 81.3821,139.809 85.3821,140.476 89.5,140.5C 98.1584,139.867 106.825,139.367 115.5,139C 121.146,138.43 125.646,135.93 129,131.5C 130.665,135.566 130.332,139.566 128,143.5C 127.722,142.584 127.222,141.918 126.5,141.5C 126.53,140.503 126.03,139.836 125,139.5C 106.904,145.762 88.7369,146.095 70.5,140.5C 57.2376,133.868 44.2376,126.701 31.5,119C 30.0966,113.921 27.4299,109.588 23.5,106C 15.9914,101.079 8.65805,95.9126 1.5,90.5C 0.407736,95.4925 0.407736,100.492 1.5,105.5C 0.833333,104.5 0.166667,103.5 -0.5,102.5C -0.5,88.1667 -0.5,73.8333 -0.5,59.5C 0.955832,55.5481 3.78917,53.2148 8,52.5C 9.60456,47.903 11.1046,43.2363 12.5,38.5C 12.2907,37.914 11.9574,37.414 11.5,37C 14.3076,31.8842 16.9743,26.7175 19.5,21.5C 21.1933,19.9733 23.0266,18.6399 25,17.5C 25.5831,19.0016 26.4164,20.3349 27.5,21.5C 28.9847,20.5672 30.3181,20.9005 31.5,22.5 Z"/></g>
<g><path style="opacity:1" fill="#1c392f" d="M 4.5,54.5 C 6.01739,54.5106 7.18405,55.1772 8,56.5C 11.8171,63.9933 16.8171,70.66 23,76.5C 24.828,81.7804 24.9946,87.1138 23.5,92.5C 9.12375,91.9579 1.45709,84.4579 0.5,70C 0.665724,64.5029 1.99906,59.3362 4.5,54.5 Z"/></g>
<g><path style="opacity:1" fill="#e1eeeb" d="M 10.5,76.5 C 13.9464,77.6118 15.9464,79.9452 16.5,83.5C 12.3617,83.0268 10.3617,80.6935 10.5,76.5 Z"/></g>
<g><path style="opacity:1" fill="#5f451a" d="M 154.5,73.5 C 155.5,73.5 156.5,73.5 157.5,73.5C 157.201,75.604 157.534,77.604 158.5,79.5C 159.799,80.09 160.632,81.09 161,82.5C 164.93,95.1484 164.263,107.482 159,119.5C 158.092,121.439 156.592,122.439 154.5,122.5C 151.57,109.225 151.903,96.0587 155.5,83C 154.893,79.8571 154.559,76.6905 154.5,73.5 Z"/></g>
<g><path style="opacity:1" fill="#5d441d" d="M 143.5,143.5 C 139.89,148.306 135.223,151.639 129.5,153.5C 130.13,148.059 131.296,142.726 133,137.5C 136.257,131.319 139.257,124.985 142,118.5C 142.798,116.741 142.631,115.074 141.5,113.5C 130.677,130.746 115.01,138.746 94.5,137.5C 89.8333,137.333 85.1667,137.167 80.5,137C 78.2199,136.767 76.2199,135.934 74.5,134.5C 88.037,127.232 101.704,120.232 115.5,113.5C 117.686,109.462 120.52,105.795 124,102.5C 125.586,101.624 127.086,100.624 128.5,99.5C 129.583,100.365 129.749,101.365 129,102.5C 127.627,105.014 126.127,107.348 124.5,109.5C 124.543,110.416 124.876,111.083 125.5,111.5C 124.207,113.296 122.707,114.963 121,116.5C 120.517,117.448 120.351,118.448 120.5,119.5C 121.873,119.657 123.207,119.49 124.5,119C 135.72,106.344 141.22,91.5105 141,74.5C 137.738,70.3898 137.904,66.3898 141.5,62.5C 144.566,64.2932 146.4,66.9599 147,70.5C 147.58,80.5506 147.08,90.5506 145.5,100.5C 146.499,109.162 147.499,117.829 148.5,126.5C 148.649,132.719 146.982,138.385 143.5,143.5 Z"/></g>
<g><path style="opacity:1" fill="#f9fafa" d="M 165.5,76.5 C 165.5,76.8333 165.5,77.1667 165.5,77.5C 165.973,78.9063 166.973,79.573 168.5,79.5C 168.5,109.167 168.5,138.833 168.5,168.5C 148.5,168.5 128.5,168.5 108.5,168.5C 109.37,166.401 110.703,166.068 112.5,167.5C 116.37,166.112 120.037,164.279 123.5,162C 124.991,159.903 125.991,157.57 126.5,155C 125.304,154.346 125.304,153.846 126.5,153.5C 127.386,154.325 127.719,155.325 127.5,156.5C 129.989,156.702 132.323,156.202 134.5,155C 138.582,151.782 141.582,147.949 143.5,143.5C 144.833,143.5 146.167,143.5 147.5,143.5C 148.022,138.234 149.688,133.401 152.5,129C 151.612,127.78 150.945,126.447 150.5,125C 151.306,120.648 152.306,120.481 153.5,124.5C 153.285,126.179 153.952,127.179 155.5,127.5C 156.675,127.719 157.675,127.386 158.5,126.5C 159.714,124.579 161.214,122.912 163,121.5C 163.333,121.833 163.667,122.167 164,122.5C 166.074,110.575 166.741,98.5748 166,86.5C 164.342,83.6913 163.175,80.6913 162.5,77.5C 162.876,75.1966 163.876,74.8632 165.5,76.5 Z"/></g>
<g><path style="opacity:1" fill="#f6f8f7" d="M -0.5,102.5 C 0.166667,103.5 0.833333,104.5 1.5,105.5C 3.16285,113.992 6.82952,121.492 12.5,128C 14.0344,128.923 15.701,129.423 17.5,129.5C 21.4848,128.177 25.4848,126.844 29.5,125.5C 31.6633,125.745 33.33,126.745 34.5,128.5C 28.2718,131.448 21.9385,134.115 15.5,136.5C 15.7093,137.086 16.0426,137.586 16.5,138C 19.2413,138.977 22.0746,139.477 25,139.5C 33.4607,137.921 41.9607,137.088 50.5,137C 52.0016,137.583 53.3349,138.416 54.5,139.5C 52.2361,140.869 49.9028,141.869 47.5,142.5C 39.8514,143.555 32.1847,144.555 24.5,145.5C 27.2211,147.527 30.2211,149.027 33.5,150C 45.2567,151.276 56.7567,150.11 68,146.5C 70.3894,146.482 72.556,147.149 74.5,148.5C 63.5718,154.22 51.9051,156.887 39.5,156.5C 41.9169,159.042 44.9169,160.542 48.5,161C 62.875,162.74 76.2084,159.74 88.5,152C 91.2272,151.182 93.8938,151.348 96.5,152.5C 87.3371,159.578 77.0037,164.245 65.5,166.5C 66.6016,167.176 67.6016,167.842 68.5,168.5C 45.5,168.5 22.5,168.5 -0.5,168.5C -0.5,146.5 -0.5,124.5 -0.5,102.5 Z"/></g>
<g><path style="opacity:1" fill="#18372c" d="M 70.5,140.5 C 70.5,141.833 70.5,143.167 70.5,144.5C 64.4888,145.107 58.4888,145.774 52.5,146.5C 52.6495,145.448 52.4828,144.448 52,143.5C 46.035,149.86 39.2016,150.86 31.5,146.5C 33.4841,145.294 35.4841,145.294 37.5,146.5C 41.8073,145.196 46.1406,144.029 50.5,143C 49.552,142.517 48.552,142.351 47.5,142.5C 49.9028,141.869 52.2361,140.869 54.5,139.5C 53.3349,138.416 52.0016,137.583 50.5,137C 41.9607,137.088 33.4607,137.921 25,139.5C 22.0746,139.477 19.2413,138.977 16.5,138C 16.0426,137.586 15.7093,137.086 15.5,136.5C 21.9385,134.115 28.2718,131.448 34.5,128.5C 33.33,126.745 31.6633,125.745 29.5,125.5C 25.4848,126.844 21.4848,128.177 17.5,129.5C 15.701,129.423 14.0344,128.923 12.5,128C 6.82952,121.492 3.16285,113.992 1.5,105.5C 0.407736,100.492 0.407736,95.4925 1.5,90.5C 8.65805,95.9126 15.9914,101.079 23.5,106C 27.4299,109.588 30.0966,113.921 31.5,119C 44.2376,126.701 57.2376,133.868 70.5,140.5 Z"/></g>
<g><path style="opacity:1" fill="#e8f1ee" d="M 12.5,109.5 C 17.0671,109.913 19.9005,112.246 21,116.5C 15.7175,117.399 12.8842,115.066 12.5,109.5 Z"/></g>
<g><path style="opacity:1" fill="#f5f3eb" d="M 115.5,113.5 C 101.704,120.232 88.037,127.232 74.5,134.5C 76.2199,135.934 78.2199,136.767 80.5,137C 85.1667,137.167 89.8333,137.333 94.5,137.5C 115.01,138.746 130.677,130.746 141.5,113.5C 142.631,115.074 142.798,116.741 142,118.5C 139.257,124.985 136.257,131.319 133,137.5C 131.296,142.726 130.13,148.059 129.5,153.5C 135.223,151.639 139.89,148.306 143.5,143.5C 141.582,147.949 138.582,151.782 134.5,155C 132.323,156.202 129.989,156.702 127.5,156.5C 127.719,155.325 127.386,154.325 126.5,153.5C 125.304,153.846 125.304,154.346 126.5,155C 125.991,157.57 124.991,159.903 123.5,162C 120.037,164.279 116.37,166.112 112.5,167.5C 110.703,166.068 109.37,166.401 108.5,168.5C 100.833,168.5 93.1667,168.5 85.5,168.5C 89.1759,167.322 92.8426,165.822 96.5,164C 99.0225,158.473 102.689,153.806 107.5,150C 110.923,148.096 114.59,147.263 118.5,147.5C 110.471,151.864 104.471,158.197 100.5,166.5C 114.133,167.18 122.467,160.846 125.5,147.5C 125.517,145.435 125.85,143.435 126.5,141.5C 127.222,141.918 127.722,142.584 128,143.5C 130.332,139.566 130.665,135.566 129,131.5C 125.646,135.93 121.146,138.43 115.5,139C 106.825,139.367 98.1584,139.867 89.5,140.5C 85.3821,140.476 81.3821,139.809 77.5,138.5C 76.914,138.709 76.414,139.043 76,139.5C 74.1667,137 72.3333,134.5 70.5,132C 73.9739,130.285 76.9739,128.118 79.5,125.5C 83.7398,123.212 88.0731,121.212 92.5,119.5C 100.059,116.555 107.726,113.889 115.5,111.5C 116.463,111.97 116.463,112.637 115.5,113.5 Z"/></g>
<g><path style="opacity:1" fill="#1b362c" d="M 126.5,141.5 C 125.85,143.435 125.517,145.435 125.5,147.5C 123.167,147.5 120.833,147.5 118.5,147.5C 114.59,147.263 110.923,148.096 107.5,150C 102.689,153.806 99.0225,158.473 96.5,164C 92.8426,165.822 89.1759,167.322 85.5,168.5C 79.8333,168.5 74.1667,168.5 68.5,168.5C 67.6016,167.842 66.6016,167.176 65.5,166.5C 77.0037,164.245 87.3371,159.578 96.5,152.5C 93.8938,151.348 91.2272,151.182 88.5,152C 76.2084,159.74 62.875,162.74 48.5,161C 44.9169,160.542 41.9169,159.042 39.5,156.5C 51.9051,156.887 63.5718,154.22 74.5,148.5C 72.556,147.149 70.3894,146.482 68,146.5C 56.7567,150.11 45.2567,151.276 33.5,150C 30.2211,149.027 27.2211,147.527 24.5,145.5C 32.1847,144.555 39.8514,143.555 47.5,142.5C 48.552,142.351 49.552,142.517 50.5,143C 46.1406,144.029 41.8073,145.196 37.5,146.5C 35.4841,145.294 33.4841,145.294 31.5,146.5C 39.2016,150.86 46.035,149.86 52,143.5C 52.4828,144.448 52.6495,145.448 52.5,146.5C 58.4888,145.774 64.4888,145.107 70.5,144.5C 70.5,143.167 70.5,141.833 70.5,140.5C 88.7369,146.095 106.904,145.762 125,139.5C 126.03,139.836 126.53,140.503 126.5,141.5 Z"/></g>
<g><path style="opacity:1" fill="#534224" d="M 118.5,147.5 C 120.833,147.5 123.167,147.5 125.5,147.5C 122.467,160.846 114.133,167.18 100.5,166.5C 104.471,158.197 110.471,151.864 118.5,147.5 Z"/></g>
<g><path style="opacity:1" fill="#5f4519" d="M 118.5,149.5 C 119.833,149.5 121.167,149.5 122.5,149.5C 122.613,152.049 121.946,154.382 120.5,156.5C 117.743,157.753 115.409,159.587 113.5,162C 110.851,162.452 108.351,163.286 106,164.5C 105.262,161.788 105.929,159.455 108,157.5C 111.299,154.449 114.799,151.782 118.5,149.5 Z"/></g>
</svg>
